<svg xmlns="http://www.w3.org/2000/svg" xmlns:xlink="http://www.w3.org/1999/xlink" width="500" zoomAndPan="magnify" viewBox="0 0 375 374.999991" height="500" preserveAspectRatio="xMidYMid meet" version="1.0"><defs><clipPath id="9f7051f64e"><path d="M 198 59 L 333 59 L 333 316.402344 L 198 316.402344 Z M 198 59 " clip-rule="nonzero"/></clipPath><clipPath id="bcf15893e4"><path d="M 41 59 L 171 59 L 171 316.402344 L 41 316.402344 Z M 41 59 " clip-rule="nonzero"/></clipPath></defs><path fill="#ffffff" d="M 170.332031 187.851562 C 170.332031 188.789062 170.285156 189.722656 170.191406 190.65625 C 170.101562 191.589844 169.964844 192.515625 169.78125 193.433594 C 169.597656 194.351562 169.371094 195.261719 169.097656 196.15625 C 168.828125 197.054688 168.511719 197.933594 168.152344 198.800781 C 167.792969 199.664062 167.394531 200.511719 166.953125 201.335938 C 166.511719 202.164062 166.03125 202.96875 165.507812 203.746094 C 164.988281 204.523438 164.429688 205.277344 163.835938 206 C 163.242188 206.726562 162.613281 207.417969 161.953125 208.082031 C 161.289062 208.742188 160.597656 209.371094 159.871094 209.964844 C 159.148438 210.5625 158.394531 211.117188 157.617188 211.640625 C 156.835938 212.160156 156.035156 212.640625 155.207031 213.082031 C 154.382812 213.523438 153.535156 213.925781 152.671875 214.28125 C 151.804688 214.640625 150.925781 214.957031 150.027344 215.226562 C 149.128906 215.5 148.222656 215.726562 147.304688 215.910156 C 146.386719 216.09375 145.460938 216.230469 144.527344 216.324219 C 143.59375 216.414062 142.660156 216.460938 141.722656 216.460938 C 140.785156 216.460938 139.851562 216.414062 138.917969 216.324219 C 137.988281 216.230469 137.0625 216.09375 136.140625 215.910156 C 135.222656 215.726562 134.316406 215.5 133.417969 215.226562 C 132.523438 214.957031 131.640625 214.640625 130.773438 214.28125 C 129.910156 213.925781 129.0625 213.523438 128.238281 213.082031 C 127.410156 212.640625 126.609375 212.160156 125.828125 211.640625 C 125.050781 211.117188 124.296875 210.5625 123.574219 209.964844 C 122.851562 209.371094 122.15625 208.742188 121.492188 208.082031 C 120.832031 207.417969 120.203125 206.726562 119.609375 206 C 119.015625 205.277344 118.457031 204.523438 117.9375 203.746094 C 117.414062 202.96875 116.933594 202.164062 116.492188 201.335938 C 116.050781 200.511719 115.652344 199.664062 115.292969 198.800781 C 114.933594 197.933594 114.617188 197.054688 114.347656 196.15625 C 114.074219 195.261719 113.847656 194.351562 113.664062 193.433594 C 113.480469 192.515625 113.34375 191.589844 113.253906 190.65625 C 113.160156 189.722656 113.113281 188.789062 113.113281 187.851562 C 113.113281 186.914062 113.160156 185.980469 113.253906 185.046875 C 113.34375 184.117188 113.480469 183.191406 113.664062 182.269531 C 113.847656 181.351562 114.074219 180.445312 114.347656 179.546875 C 114.617188 178.652344 114.933594 177.769531 115.292969 176.902344 C 115.652344 176.039062 116.050781 175.191406 116.492188 174.367188 C 116.933594 173.539062 117.414062 172.738281 117.9375 171.957031 C 118.457031 171.179688 119.015625 170.425781 119.609375 169.703125 C 120.203125 168.980469 120.832031 168.285156 121.492188 167.625 C 122.15625 166.960938 122.851562 166.332031 123.574219 165.738281 C 124.296875 165.144531 125.050781 164.585938 125.828125 164.066406 C 126.609375 163.542969 127.410156 163.0625 128.238281 162.621094 C 129.0625 162.179688 129.910156 161.78125 130.773438 161.421875 C 131.640625 161.0625 132.523438 160.746094 133.417969 160.476562 C 134.316406 160.203125 135.222656 159.976562 136.140625 159.792969 C 137.0625 159.609375 137.988281 159.472656 138.917969 159.382812 C 139.851562 159.289062 140.785156 159.242188 141.722656 159.242188 C 142.660156 159.242188 143.59375 159.289062 144.527344 159.382812 C 145.460938 159.472656 146.386719 159.609375 147.304688 159.792969 C 148.222656 159.976562 149.128906 160.203125 150.027344 160.476562 C 150.925781 160.746094 151.804688 161.0625 152.671875 161.421875 C 153.535156 161.78125 154.382812 162.179688 155.207031 162.621094 C 156.035156 163.0625 156.835938 163.542969 157.617188 164.066406 C 158.394531 164.585938 159.148438 165.144531 159.871094 165.738281 C 160.597656 166.332031 161.289062 166.960938 161.953125 167.625 C 162.613281 168.285156 163.242188 168.980469 163.835938 169.703125 C 164.429688 170.425781 164.988281 171.179688 165.507812 171.957031 C 166.03125 172.738281 166.511719 173.539062 166.953125 174.367188 C 167.394531 175.191406 167.792969 176.039062 168.152344 176.902344 C 168.511719 177.769531 168.828125 178.652344 169.097656 179.546875 C 169.371094 180.445312 169.597656 181.351562 169.78125 182.269531 C 169.964844 183.191406 170.101562 184.117188 170.191406 185.046875 C 170.285156 185.980469 170.332031 186.914062 170.332031 187.851562 Z M 170.332031 187.851562 " fill-opacity="1" fill-rule="nonzero"/><path fill="#ffffff" d="M 256.15625 187.851562 C 256.15625 188.789062 256.109375 189.722656 256.015625 190.65625 C 255.925781 191.589844 255.789062 192.515625 255.605469 193.433594 C 255.421875 194.351562 255.195312 195.261719 254.921875 196.15625 C 254.652344 197.054688 254.335938 197.933594 253.976562 198.800781 C 253.617188 199.664062 253.21875 200.511719 252.777344 201.335938 C 252.335938 202.164062 251.855469 202.96875 251.332031 203.746094 C 250.8125 204.523438 250.253906 205.277344 249.660156 206 C 249.066406 206.726562 248.4375 207.417969 247.777344 208.082031 C 247.113281 208.742188 246.421875 209.371094 245.695312 209.964844 C 244.972656 210.5625 244.21875 211.117188 243.441406 211.640625 C 242.660156 212.160156 241.859375 212.640625 241.03125 213.082031 C 240.207031 213.523438 239.359375 213.925781 238.496094 214.28125 C 237.628906 214.640625 236.75 214.957031 235.851562 215.226562 C 234.953125 215.5 234.046875 215.726562 233.128906 215.910156 C 232.210938 216.09375 231.285156 216.230469 230.351562 216.324219 C 229.417969 216.414062 228.484375 216.460938 227.546875 216.460938 C 226.609375 216.460938 225.675781 216.414062 224.742188 216.324219 C 223.808594 216.230469 222.886719 216.09375 221.964844 215.910156 C 221.046875 215.726562 220.140625 215.5 219.242188 215.226562 C 218.347656 214.957031 217.464844 214.640625 216.597656 214.28125 C 215.734375 213.925781 214.886719 213.523438 214.0625 213.082031 C 213.234375 212.640625 212.433594 212.160156 211.652344 211.640625 C 210.875 211.117188 210.121094 210.5625 209.398438 209.964844 C 208.675781 209.371094 207.980469 208.742188 207.316406 208.082031 C 206.65625 207.417969 206.027344 206.726562 205.433594 206 C 204.839844 205.277344 204.28125 204.523438 203.761719 203.746094 C 203.238281 202.96875 202.757812 202.164062 202.316406 201.335938 C 201.875 200.511719 201.476562 199.664062 201.117188 198.800781 C 200.757812 197.933594 200.441406 197.054688 200.171875 196.15625 C 199.898438 195.261719 199.671875 194.351562 199.488281 193.433594 C 199.304688 192.515625 199.167969 191.589844 199.078125 190.65625 C 198.984375 189.722656 198.9375 188.789062 198.9375 187.851562 C 198.9375 186.914062 198.984375 185.980469 199.078125 185.046875 C 199.167969 184.117188 199.304688 183.191406 199.488281 182.269531 C 199.671875 181.351562 199.898438 180.445312 200.171875 179.546875 C 200.441406 178.652344 200.757812 177.769531 201.117188 176.902344 C 201.476562 176.039062 201.875 175.191406 202.316406 174.367188 C 202.757812 173.539062 203.238281 172.738281 203.761719 171.957031 C 204.28125 171.179688 204.839844 170.425781 205.433594 169.703125 C 206.027344 168.980469 206.65625 168.285156 207.316406 167.625 C 207.980469 166.960938 208.675781 166.332031 209.398438 165.738281 C 210.121094 165.144531 210.875 164.585938 211.652344 164.066406 C 212.433594 163.542969 213.234375 163.0625 214.0625 162.621094 C 214.886719 162.179688 215.734375 161.78125 216.597656 161.421875 C 217.464844 161.0625 218.347656 160.746094 219.242188 160.476562 C 220.140625 160.203125 221.046875 159.976562 221.964844 159.792969 C 222.886719 159.609375 223.808594 159.472656 224.742188 159.382812 C 225.675781 159.289062 226.609375 159.242188 227.546875 159.242188 C 228.484375 159.242188 229.417969 159.289062 230.351562 159.382812 C 231.285156 159.472656 232.210938 159.609375 233.128906 159.792969 C 234.046875 159.976562 234.953125 160.203125 235.851562 160.476562 C 236.75 160.746094 237.628906 161.0625 238.496094 161.421875 C 239.359375 161.78125 240.207031 162.179688 241.03125 162.621094 C 241.859375 163.0625 242.660156 163.542969 243.441406 164.066406 C 244.21875 164.585938 244.972656 165.144531 245.695312 165.738281 C 246.421875 166.332031 247.113281 166.960938 247.777344 167.625 C 248.4375 168.285156 249.066406 168.980469 249.660156 169.703125 C 250.253906 170.425781 250.8125 171.179688 251.332031 171.957031 C 251.855469 172.738281 252.335938 173.539062 252.777344 174.367188 C 253.21875 175.191406 253.617188 176.039062 253.976562 176.902344 C 254.335938 177.769531 254.652344 178.652344 254.921875 179.546875 C 255.195312 180.445312 255.421875 181.351562 255.605469 182.269531 C 255.789062 183.191406 255.925781 184.117188 256.015625 185.046875 C 256.109375 185.980469 256.15625 186.914062 256.15625 187.851562 Z M 256.15625 187.851562 " fill-opacity="1" fill-rule="nonzero"/><path fill="#ffffff" d="M 249.003906 137.789062 C 247.664062 137.789062 246.355469 137.605469 245.070312 137.238281 C 197.617188 123.648438 171.640625 123.648438 124.199219 137.238281 C 123.296875 137.496094 122.378906 137.664062 121.441406 137.742188 C 120.503906 137.816406 119.570312 137.800781 118.636719 137.695312 C 117.703125 137.589844 116.789062 137.390625 115.898438 137.105469 C 115.003906 136.816406 114.144531 136.445312 113.324219 135.992188 C 112.503906 135.535156 111.734375 135.003906 111.015625 134.394531 C 110.300781 133.789062 109.648438 133.117188 109.066406 132.382812 C 108.480469 131.644531 107.976562 130.859375 107.546875 130.023438 C 107.117188 129.191406 106.773438 128.320312 106.511719 127.417969 C 106.253906 126.515625 106.085938 125.59375 106.011719 124.660156 C 105.933594 123.722656 105.949219 122.789062 106.054688 121.855469 C 106.164062 120.921875 106.359375 120.007812 106.644531 119.113281 C 106.933594 118.21875 107.304688 117.363281 107.761719 116.539062 C 108.214844 115.71875 108.746094 114.949219 109.355469 114.234375 C 109.960938 113.515625 110.632812 112.867188 111.371094 112.28125 C 112.105469 111.699219 112.890625 111.191406 113.726562 110.761719 C 114.5625 110.332031 115.429688 109.988281 116.332031 109.730469 C 168.671875 94.769531 200.582031 94.769531 252.9375 109.730469 C 253.757812 109.964844 254.554688 110.273438 255.320312 110.648438 C 256.089844 111.027344 256.816406 111.472656 257.503906 111.980469 C 258.195312 112.488281 258.832031 113.054688 259.417969 113.675781 C 260.003906 114.300781 260.53125 114.96875 260.996094 115.6875 C 261.464844 116.402344 261.863281 117.15625 262.195312 117.945312 C 262.523438 118.734375 262.785156 119.546875 262.96875 120.382812 C 263.15625 121.214844 263.265625 122.0625 263.296875 122.917969 C 263.332031 123.773438 263.289062 124.621094 263.171875 125.46875 C 263.050781 126.316406 262.859375 127.148438 262.589844 127.960938 C 262.324219 128.773438 261.984375 129.554688 261.578125 130.308594 C 261.167969 131.058594 260.699219 131.769531 260.164062 132.4375 C 259.628906 133.101562 259.035156 133.71875 258.390625 134.277344 C 257.746094 134.839844 257.054688 135.339844 256.320312 135.777344 C 255.585938 136.214844 254.816406 136.582031 254.015625 136.882812 C 253.214844 137.183594 252.390625 137.40625 251.550781 137.558594 C 250.707031 137.710938 249.859375 137.789062 249.003906 137.789062 Z M 249.003906 137.789062 " fill-opacity="1" fill-rule="nonzero"/><path fill="#ffffff" d="M 184.636719 277.308594 C 158.949219 277.101562 133.800781 273.324219 109.1875 265.972656 C 108.285156 265.714844 107.417969 265.371094 106.582031 264.941406 C 105.746094 264.511719 104.960938 264.003906 104.226562 263.421875 C 103.488281 262.835938 102.816406 262.1875 102.210938 261.46875 C 101.601562 260.753906 101.070312 259.984375 100.617188 259.164062 C 100.160156 258.34375 99.789062 257.484375 99.5 256.589844 C 99.214844 255.695312 99.015625 254.78125 98.910156 253.847656 C 98.804688 252.914062 98.789062 251.980469 98.867188 251.046875 C 98.941406 250.109375 99.109375 249.191406 99.367188 248.285156 C 99.628906 247.382812 99.972656 246.515625 100.402344 245.679688 C 100.828125 244.84375 101.335938 244.058594 101.921875 243.324219 C 102.503906 242.585938 103.15625 241.914062 103.871094 241.308594 C 104.589844 240.699219 105.355469 240.167969 106.179688 239.714844 C 107 239.257812 107.859375 238.886719 108.75 238.597656 C 109.644531 238.3125 110.558594 238.117188 111.492188 238.007812 C 112.425781 237.902344 113.359375 237.886719 114.296875 237.964844 C 115.234375 238.039062 116.152344 238.207031 117.054688 238.46875 C 128.003906 241.832031 139.144531 244.363281 150.46875 246.066406 C 161.796875 247.769531 173.1875 248.617188 184.640625 248.617188 C 196.097656 248.617188 207.488281 247.769531 218.816406 246.066406 C 230.140625 244.363281 241.28125 241.832031 252.230469 238.46875 C 253.132812 238.207031 254.050781 238.042969 254.988281 237.964844 C 255.921875 237.886719 256.855469 237.902344 257.789062 238.011719 C 258.722656 238.117188 259.636719 238.316406 260.53125 238.601562 C 261.425781 238.890625 262.28125 239.261719 263.101562 239.714844 C 263.925781 240.171875 264.691406 240.703125 265.410156 241.3125 C 266.125 241.917969 266.773438 242.589844 267.359375 243.324219 C 267.941406 244.0625 268.449219 244.847656 268.878906 245.679688 C 269.308594 246.515625 269.652344 247.386719 269.910156 248.289062 C 270.167969 249.191406 270.335938 250.109375 270.414062 251.046875 C 270.492188 251.980469 270.476562 252.917969 270.371094 253.847656 C 270.261719 254.78125 270.066406 255.695312 269.777344 256.589844 C 269.492188 257.484375 269.121094 258.34375 268.664062 259.164062 C 268.210938 259.984375 267.679688 260.753906 267.070312 261.46875 C 266.464844 262.1875 265.792969 262.835938 265.058594 263.421875 C 264.324219 264.003906 263.539062 264.511719 262.703125 264.941406 C 261.867188 265.371094 261 265.714844 260.097656 265.972656 C 235.480469 273.324219 210.324219 277.105469 184.636719 277.308594 Z M 184.636719 277.308594 " fill-opacity="1" fill-rule="nonzero"/><g clip-path="url(#9f7051f64e)"><path fill="#ffffff" d="M 263.308594 316.589844 C 244.882812 316.589844 220.394531 277.332031 220.394531 259.371094 C 220.394531 258.433594 220.488281 257.503906 220.667969 256.582031 C 220.851562 255.660156 221.125 254.765625 221.484375 253.898438 C 221.84375 253.03125 222.285156 252.207031 222.804688 251.425781 C 223.328125 250.644531 223.921875 249.921875 224.585938 249.257812 C 225.25 248.59375 225.972656 248 226.753906 247.480469 C 227.53125 246.957031 228.355469 246.515625 229.226562 246.15625 C 230.09375 245.796875 230.988281 245.527344 231.910156 245.34375 C 232.828125 245.160156 233.761719 245.066406 234.699219 245.066406 C 235.636719 245.066406 236.570312 245.160156 237.488281 245.34375 C 238.410156 245.527344 239.304688 245.796875 240.171875 246.15625 C 241.039062 246.515625 241.863281 246.957031 242.644531 247.480469 C 243.425781 248 244.148438 248.59375 244.8125 249.257812 C 245.476562 249.921875 246.070312 250.644531 246.59375 251.425781 C 247.113281 252.207031 247.554688 253.03125 247.914062 253.898438 C 248.273438 254.765625 248.546875 255.660156 248.726562 256.582031 C 248.910156 257.503906 249.003906 258.433594 249.003906 259.371094 C 249.003906 265.335938 259.808594 282.152344 266.097656 287.722656 C 278.304688 285.519531 292.164062 269.515625 300.296875 253.535156 C 308.277344 232.546875 305.210938 177.417969 279.992188 104.136719 C 273.378906 100.152344 266.425781 96.886719 259.136719 94.339844 C 251.847656 91.792969 244.371094 90.019531 236.714844 89.019531 L 226.523438 114.492188 C 226.175781 115.367188 225.746094 116.195312 225.230469 116.984375 C 224.71875 117.769531 224.136719 118.5 223.480469 119.171875 C 222.824219 119.84375 222.109375 120.445312 221.332031 120.976562 C 220.558594 121.507812 219.738281 121.957031 218.875 122.328125 C 218.011719 122.699219 217.121094 122.980469 216.203125 123.175781 C 215.285156 123.371094 214.355469 123.472656 213.417969 123.484375 C 212.476562 123.496094 211.546875 123.414062 210.621094 123.242188 C 209.699219 123.070312 208.800781 122.808594 207.929688 122.460938 C 207.058594 122.113281 206.226562 121.683594 205.441406 121.167969 C 204.652344 120.65625 203.921875 120.074219 203.25 119.417969 C 202.578125 118.761719 201.976562 118.046875 201.445312 117.269531 C 200.914062 116.496094 200.464844 115.675781 200.09375 114.8125 C 199.722656 113.949219 199.441406 113.058594 199.246094 112.140625 C 199.054688 111.222656 198.949219 110.292969 198.9375 109.351562 C 198.929688 108.414062 199.007812 107.484375 199.179688 106.558594 C 199.351562 105.636719 199.613281 104.738281 199.960938 103.867188 L 214.265625 68.105469 C 214.554688 67.386719 214.898438 66.695312 215.296875 66.03125 C 215.695312 65.371094 216.148438 64.742188 216.648438 64.152344 C 217.152344 63.5625 217.695312 63.015625 218.285156 62.515625 C 218.878906 62.015625 219.503906 61.5625 220.167969 61.164062 C 220.832031 60.765625 221.523438 60.421875 222.242188 60.132812 C 222.960938 59.847656 223.699219 59.621094 224.453125 59.453125 C 225.210938 59.285156 225.976562 59.179688 226.75 59.136719 C 227.523438 59.09375 228.292969 59.113281 229.0625 59.195312 C 235.375 59.605469 241.636719 60.425781 247.839844 61.652344 C 254.046875 62.875 260.148438 64.5 266.144531 66.519531 C 272.136719 68.542969 277.976562 70.945312 283.65625 73.726562 C 289.339844 76.507812 294.816406 79.644531 300.089844 83.140625 C 301.320312 83.992188 302.386719 85.015625 303.296875 86.207031 C 304.203125 87.398438 304.90625 88.699219 305.402344 90.113281 C 331.335938 163.601562 339.675781 232.121094 326.652344 264.6875 C 326.503906 265.050781 326.335938 265.402344 326.167969 265.773438 C 313.871094 290.339844 290.898438 316.589844 263.308594 316.589844 Z M 267.71875 288.96875 Z M 267.71875 288.96875 " fill-opacity="1" fill-rule="nonzero"/></g><g clip-path="url(#bcf15893e4)"><path fill="#ffffff" d="M 108.367188 316.589844 C 81.644531 316.589844 59.539062 290.210938 47.773438 265.523438 C 47.609375 265.179688 47.460938 264.808594 47.324219 264.464844 C 34.964844 232.03125 42.910156 163.679688 67.554688 90.320312 C 68.027344 88.917969 68.699219 87.621094 69.570312 86.429688 C 70.445312 85.238281 71.476562 84.207031 72.671875 83.332031 C 77.613281 79.832031 82.769531 76.679688 88.144531 73.882812 C 93.515625 71.085938 99.054688 68.667969 104.757812 66.628906 C 110.464844 64.589844 116.277344 62.949219 122.207031 61.707031 C 128.136719 60.460938 134.121094 59.628906 140.164062 59.203125 C 140.933594 59.117188 141.707031 59.09375 142.484375 59.136719 C 143.257812 59.179688 144.027344 59.28125 144.785156 59.449219 C 145.542969 59.613281 146.28125 59.839844 147.003906 60.125 C 147.722656 60.414062 148.417969 60.753906 149.082031 61.15625 C 149.75 61.554688 150.378906 62.003906 150.96875 62.507812 C 151.5625 63.007812 152.109375 63.554688 152.613281 64.144531 C 153.117188 64.734375 153.570312 65.363281 153.96875 66.027344 C 154.371094 66.691406 154.714844 67.386719 155.003906 68.105469 L 169.308594 103.867188 C 169.65625 104.738281 169.917969 105.636719 170.089844 106.558594 C 170.261719 107.484375 170.34375 108.414062 170.332031 109.351562 C 170.320312 110.292969 170.214844 111.222656 170.023438 112.140625 C 169.828125 113.058594 169.546875 113.949219 169.175781 114.8125 C 168.804688 115.675781 168.355469 116.496094 167.824219 117.269531 C 167.292969 118.046875 166.691406 118.761719 166.019531 119.417969 C 165.347656 120.074219 164.617188 120.65625 163.828125 121.167969 C 163.042969 121.683594 162.214844 122.113281 161.339844 122.460938 C 160.46875 122.808594 159.570312 123.070312 158.648438 123.242188 C 157.722656 123.414062 156.792969 123.496094 155.855469 123.484375 C 154.914062 123.472656 153.984375 123.371094 153.066406 123.175781 C 152.148438 122.980469 151.257812 122.699219 150.394531 122.328125 C 149.53125 121.957031 148.710938 121.507812 147.9375 120.976562 C 147.160156 120.445312 146.445312 119.84375 145.789062 119.171875 C 145.132812 118.5 144.550781 117.769531 144.039062 116.984375 C 143.523438 116.195312 143.09375 115.367188 142.746094 114.492188 L 132.582031 89.082031 C 125.558594 90.097656 118.726562 91.855469 112.085938 94.355469 C 105.445312 96.851562 99.148438 100.03125 93.195312 103.894531 C 69.121094 177.359375 66.21875 232.6875 73.886719 253.773438 C 81.4375 269.363281 94.082031 284.984375 105.226562 287.59375 C 108.832031 283.5625 111.90625 279.164062 114.449219 274.390625 C 116.992188 269.617188 118.933594 264.613281 120.265625 259.371094 C 120.265625 258.433594 120.359375 257.503906 120.542969 256.582031 C 120.726562 255.660156 120.996094 254.765625 121.355469 253.898438 C 121.714844 253.03125 122.15625 252.207031 122.675781 251.425781 C 123.199219 250.644531 123.792969 249.921875 124.457031 249.257812 C 125.121094 248.59375 125.84375 248 126.625 247.480469 C 127.40625 246.957031 128.230469 246.515625 129.097656 246.15625 C 129.964844 245.796875 130.859375 245.527344 131.78125 245.34375 C 132.703125 245.160156 133.632812 245.066406 134.570312 245.066406 C 135.511719 245.066406 136.441406 245.160156 137.363281 245.34375 C 138.28125 245.527344 139.175781 245.796875 140.042969 246.15625 C 140.914062 246.515625 141.738281 246.957031 142.519531 247.480469 C 143.296875 248 144.019531 248.59375 144.683594 249.257812 C 145.347656 249.921875 145.941406 250.644531 146.464844 251.425781 C 146.984375 252.207031 147.425781 253.03125 147.785156 253.898438 C 148.144531 254.765625 148.417969 255.660156 148.601562 256.582031 C 148.785156 257.503906 148.875 258.433594 148.875 259.371094 C 148.246094 265.574219 146.847656 271.597656 144.683594 277.445312 C 142.515625 283.289062 139.648438 288.769531 136.078125 293.878906 C 121.605469 316.589844 111.984375 316.589844 108.367188 316.589844 Z M 108.367188 316.589844 " fill-opacity="1" fill-rule="nonzero"/></g></svg>