<svg xmlns="http://www.w3.org/2000/svg" xmlns:xlink="http://www.w3.org/1999/xlink" width="100" zoomAndPan="magnify" viewBox="0 0 75 74.999997" height="100" preserveAspectRatio="xMidYMid meet" version="1.0"><defs><g/><clipPath id="827d2608d4"><path d="M 12.433594 12.433594 L 62.683594 12.433594 L 62.683594 62.683594 L 12.433594 62.683594 Z M 12.433594 12.433594 " clip-rule="nonzero"/></clipPath></defs><g fill="#ffffff" fill-opacity="1"><g transform="translate(2.272436, 44.431248)"><g><path d="M 16.0625 -11.171875 L 16.0625 -13.78125 L 6.09375 -13.78125 L 6.09375 -11.171875 Z M 11.171875 -5.65625 L 11.171875 -8.265625 L 6.09375 -8.265625 L 6.09375 -5.65625 Z M 4.71875 0 L 4.71875 -13.78125 L 1.8125 -13.78125 L 1.8125 0 Z M 4.71875 0 "/></g></g></g><g fill="#ffffff" fill-opacity="1"><g transform="translate(19.633365, 44.431248)"><g><path d="M 4.71875 0 L 4.71875 -13.78125 L 1.8125 -13.78125 L 1.8125 0 Z M 16.078125 0 L 16.078125 -2.625 L 6.09375 -2.625 L 6.09375 0 Z M 16.078125 0 "/></g></g></g><g fill="#ffffff" fill-opacity="1"><g transform="translate(37.014459, 44.431248)"><g><path d="M 18.984375 -2.625 L 18.984375 -11.171875 L 16.078125 -11.171875 L 16.078125 -2.625 Z M 14.71875 -11.171875 L 14.71875 -13.78125 L 6.09375 -13.78125 L 6.09375 -11.171875 Z M 14.71875 0 L 14.71875 -2.625 L 6.09375 -2.625 L 6.09375 0 Z M 4.71875 -2.625 L 4.71875 -11.171875 L 1.8125 -11.171875 L 1.8125 -2.625 Z M 4.71875 -2.625 "/></g></g></g><g fill="#ffffff" fill-opacity="1"><g transform="translate(57.823381, 44.431248)"><g><path d="M 6.453125 -9.953125 L 2.4375 -13.96875 L 0.40625 -11.90625 L 4.390625 -7.921875 Z M 14.5 -1.921875 L 10.46875 -5.953125 L 8.453125 -3.90625 L 12.484375 0.09375 Z M 14.453125 -11.859375 L 12.375 -13.953125 L 0.40625 -1.96875 L 2.453125 0.125 Z M 14.453125 -11.859375 "/></g></g></g><g clip-path="url(#827d2608d4)"><path fill="#ffffff" d="M 62.320312 29.46875 C 62.484375 29.46875 62.566406 29.390625 62.566406 29.226562 C 62.566406 29.0625 62.484375 28.980469 62.320312 28.980469 L 54.292969 28.980469 L 54.292969 21.195312 L 62.320312 21.195312 C 62.484375 21.195312 62.566406 21.113281 62.566406 20.949219 C 62.566406 20.785156 62.484375 20.703125 62.320312 20.703125 L 54.292969 20.703125 L 54.292969 12.675781 C 54.292969 12.511719 54.210938 12.433594 54.046875 12.433594 C 53.882812 12.433594 53.800781 12.511719 53.800781 12.675781 L 53.800781 20.703125 L 46.015625 20.703125 L 46.015625 12.675781 C 46.015625 12.511719 45.933594 12.433594 45.769531 12.433594 C 45.605469 12.433594 45.527344 12.511719 45.527344 12.675781 L 45.527344 20.703125 L 37.742188 20.703125 L 37.742188 12.675781 C 37.742188 12.511719 37.660156 12.433594 37.5 12.433594 C 37.335938 12.433594 37.253906 12.511719 37.253906 12.675781 L 37.253906 20.703125 L 29.46875 20.703125 L 29.46875 12.675781 C 29.46875 12.511719 29.390625 12.433594 29.226562 12.433594 C 29.0625 12.433594 28.980469 12.511719 28.980469 12.675781 L 28.980469 20.703125 L 21.195312 20.703125 L 21.195312 12.675781 C 21.195312 12.511719 21.113281 12.433594 20.949219 12.433594 C 20.785156 12.433594 20.703125 12.511719 20.703125 12.675781 L 20.703125 20.703125 L 12.675781 20.703125 C 12.511719 20.703125 12.433594 20.785156 12.433594 20.949219 C 12.433594 21.113281 12.511719 21.195312 12.675781 21.195312 L 20.703125 21.195312 L 20.703125 28.980469 L 12.675781 28.980469 C 12.511719 28.980469 12.433594 29.0625 12.433594 29.226562 C 12.433594 29.390625 12.511719 29.46875 12.675781 29.46875 L 20.703125 29.46875 L 20.703125 37.253906 L 12.675781 37.253906 C 12.511719 37.253906 12.433594 37.335938 12.433594 37.5 C 12.433594 37.660156 12.511719 37.742188 12.675781 37.742188 L 20.703125 37.742188 L 20.703125 45.527344 L 12.675781 45.527344 C 12.511719 45.527344 12.433594 45.605469 12.433594 45.769531 C 12.433594 45.933594 12.511719 46.015625 12.675781 46.015625 L 20.703125 46.015625 L 20.703125 53.800781 L 12.675781 53.800781 C 12.511719 53.800781 12.433594 53.882812 12.433594 54.046875 C 12.433594 54.210938 12.511719 54.292969 12.675781 54.292969 L 20.703125 54.292969 L 20.703125 62.320312 C 20.703125 62.484375 20.785156 62.566406 20.949219 62.566406 C 21.113281 62.566406 21.195312 62.484375 21.195312 62.320312 L 21.195312 54.292969 L 28.980469 54.292969 L 28.980469 62.320312 C 28.980469 62.484375 29.0625 62.566406 29.226562 62.566406 C 29.390625 62.566406 29.46875 62.484375 29.46875 62.320312 L 29.46875 54.292969 L 37.253906 54.292969 L 37.253906 62.320312 C 37.253906 62.484375 37.335938 62.566406 37.5 62.566406 C 37.660156 62.566406 37.742188 62.484375 37.742188 62.320312 L 37.742188 54.292969 L 45.527344 54.292969 L 45.527344 62.320312 C 45.527344 62.484375 45.605469 62.566406 45.769531 62.566406 C 45.933594 62.566406 46.015625 62.484375 46.015625 62.320312 L 46.015625 54.292969 L 53.800781 54.292969 L 53.800781 62.320312 C 53.800781 62.484375 53.882812 62.566406 54.046875 62.566406 C 54.210938 62.566406 54.292969 62.484375 54.292969 62.320312 L 54.292969 54.292969 L 62.320312 54.292969 C 62.484375 54.292969 62.566406 54.210938 62.566406 54.046875 C 62.566406 53.882812 62.484375 53.800781 62.320312 53.800781 L 54.292969 53.800781 L 54.292969 46.015625 L 62.320312 46.015625 C 62.484375 46.015625 62.566406 45.933594 62.566406 45.769531 C 62.566406 45.605469 62.484375 45.527344 62.320312 45.527344 L 54.292969 45.527344 L 54.292969 37.742188 L 62.320312 37.742188 C 62.484375 37.742188 62.566406 37.660156 62.566406 37.5 C 62.566406 37.335938 62.484375 37.253906 62.320312 37.253906 L 54.292969 37.253906 L 54.292969 29.46875 Z M 53.800781 21.195312 L 53.800781 28.980469 L 46.015625 28.980469 L 46.015625 21.195312 Z M 45.527344 21.195312 L 45.527344 28.980469 L 37.742188 28.980469 L 37.742188 21.195312 Z M 37.253906 37.742188 L 37.253906 45.527344 L 29.46875 45.527344 L 29.46875 37.742188 Z M 29.46875 37.253906 L 29.46875 29.46875 L 37.253906 29.46875 L 37.253906 37.253906 Z M 37.742188 37.742188 L 45.527344 37.742188 L 45.527344 45.527344 L 37.742188 45.527344 Z M 37.742188 37.253906 L 37.742188 29.46875 L 45.527344 29.46875 L 45.527344 37.253906 Z M 37.253906 21.195312 L 37.253906 28.980469 L 29.46875 28.980469 L 29.46875 21.195312 Z M 21.195312 21.195312 L 28.980469 21.195312 L 28.980469 28.980469 L 21.195312 28.980469 Z M 21.195312 29.46875 L 28.980469 29.46875 L 28.980469 37.253906 L 21.195312 37.253906 Z M 21.195312 37.742188 L 28.980469 37.742188 L 28.980469 45.527344 L 21.195312 45.527344 Z M 21.195312 53.800781 L 21.195312 46.015625 L 28.980469 46.015625 L 28.980469 53.800781 Z M 29.46875 53.800781 L 29.46875 46.015625 L 37.253906 46.015625 L 37.253906 53.800781 Z M 37.742188 53.800781 L 37.742188 46.015625 L 45.527344 46.015625 L 45.527344 53.800781 Z M 53.800781 53.800781 L 46.015625 53.800781 L 46.015625 46.015625 L 53.800781 46.015625 Z M 53.800781 45.527344 L 46.015625 45.527344 L 46.015625 37.742188 L 53.800781 37.742188 Z M 53.800781 37.253906 L 46.015625 37.253906 L 46.015625 29.46875 L 53.800781 29.46875 Z M 53.800781 37.253906 " fill-opacity="1" fill-rule="nonzero"/></g></svg>