<svg xmlns="http://www.w3.org/2000/svg" xmlns:xlink="http://www.w3.org/1999/xlink" width="500" zoomAndPan="magnify" viewBox="0 0 375 374.999991" height="500" preserveAspectRatio="xMidYMid meet" version="1.0"><defs><clipPath id="daf2faae05"><path d="M 35.199219 27 L 339.699219 27 L 339.699219 330.488281 L 35.199219 330.488281 Z M 35.199219 27 " clip-rule="nonzero"/></clipPath></defs><g clip-path="url(#daf2faae05)"><path fill="#ffffff" d="M 187.949219 330.117188 C 103.703125 329.46875 35.199219 261.472656 35.890625 177.464844 C 36.550781 97.277344 102.492188 27.210938 188.125 27.007812 C 274.128906 26.800781 338.992188 99.308594 339.378906 178.179688 C 339.789062 261.226562 270.738281 330.105469 187.949219 330.117188 Z M 187.964844 313.664062 C 259.269531 313.90625 322.910156 254.808594 323.253906 179.4375 C 323.585938 105.65625 261.976562 43.789062 189 43.445312 C 112.402344 43.085938 52.53125 106 51.921875 177.515625 C 51.289062 252.320312 112.660156 312.867188 187.964844 313.664062 Z M 187.964844 313.664062 " fill-opacity="1" fill-rule="nonzero"/></g><path fill="#ffffff" d="M 69.125 178.472656 C 69.375 149.832031 79.375 124.945312 97.667969 103.253906 C 115.96875 81.554688 139.277344 68.121094 167.105469 63.066406 C 201.964844 56.738281 233.308594 65.320312 261.023438 87.164062 C 279.9375 102.074219 293.085938 121.203125 300.375 144.089844 C 309.8125 173.730469 307.558594 202.722656 293.492188 230.503906 C 279.074219 258.992188 256.542969 278.75 226.515625 289.308594 C 195.066406 300.363281 163.9375 298.140625 134.324219 282.996094 C 98.691406 264.773438 77.363281 235.492188 70.605469 195.914062 C 69.625 190.183594 69.59375 184.289062 69.125 178.472656 Z M 173.910156 218.289062 C 174.730469 218.757812 175.320312 219.066406 175.882812 219.417969 C 184.703125 224.914062 193.527344 230.414062 202.339844 235.921875 C 204.785156 237.453125 205.703125 237.292969 207.152344 234.785156 C 208.546875 232.363281 209.828125 229.875 211.171875 227.421875 C 222.871094 206.105469 234.601562 184.808594 246.261719 163.46875 C 254.101562 149.121094 261.847656 134.722656 269.617188 120.335938 C 270.027344 119.582031 270.28125 118.746094 270.605469 117.945312 C 270.472656 117.820312 270.339844 117.699219 270.207031 117.574219 C 269.710938 117.800781 269.171875 117.964844 268.726562 118.261719 C 267.566406 119.039062 266.445312 119.878906 265.308594 120.6875 C 248.0625 132.945312 230.867188 145.277344 213.554688 157.4375 C 193.109375 171.800781 172.5625 186.027344 152.03125 200.269531 C 150.804688 201.121094 150.21875 202.066406 150.113281 203.523438 C 149.238281 215.714844 148.320312 227.90625 147.410156 240.09375 C 147.371094 240.625 147.261719 241.148438 147.1875 241.675781 C 146.460938 240.367188 146.167969 239.074219 145.84375 237.792969 C 142.105469 223.0625 138.394531 208.328125 134.582031 193.617188 C 134.179688 192.050781 134.578125 191.371094 135.914062 190.65625 C 142.722656 187.019531 149.523438 183.363281 156.253906 179.582031 C 188.796875 161.3125 221.320312 143.003906 253.839844 124.6875 C 257.945312 122.375 261.988281 119.949219 266.0625 117.574219 C 265.46875 117.28125 265.011719 117.3125 264.585938 117.449219 C 260.136719 118.890625 255.6875 120.339844 251.242188 121.796875 C 226.238281 129.984375 201.25 138.210938 176.234375 146.347656 C 150.585938 154.691406 124.90625 162.953125 99.238281 171.238281 C 96.695312 172.058594 94.117188 172.777344 91.585938 173.628906 C 91.078125 173.796875 90.707031 174.363281 90.273438 174.746094 C 90.660156 175.179688 90.976562 175.71875 91.445312 176.019531 C 92.046875 176.410156 92.765625 176.628906 93.441406 176.894531 C 104.867188 181.378906 116.289062 185.871094 127.726562 190.324219 C 129.394531 190.972656 130.5 191.789062 130.984375 193.746094 C 135.109375 210.421875 139.363281 227.070312 143.585938 243.726562 C 143.933594 245.082031 144.25 246.535156 145.871094 246.960938 C 147.597656 247.417969 148.566406 246.203125 149.539062 245.109375 C 152.289062 242.019531 154.980469 238.882812 157.765625 235.828125 C 163.09375 229.992188 168.464844 224.199219 173.910156 218.289062 Z M 173.910156 218.289062 " fill-opacity="1" fill-rule="nonzero"/></svg>