<svg xmlns="http://www.w3.org/2000/svg" xmlns:xlink="http://www.w3.org/1999/xlink" width="500" zoomAndPan="magnify" viewBox="0 0 375 374.999991" height="500" preserveAspectRatio="xMidYMid meet" version="1.0"><defs><clipPath id="7673548c12"><path d="M 37.5 37.5 L 337.5 37.5 L 337.5 337.5 L 37.5 337.5 Z M 37.5 37.5 " clip-rule="nonzero"/></clipPath></defs><path fill="#ffffff" d="M 248.535156 129.621094 L 223.007812 249.671875 C 221.746094 255.613281 214.667969 258.265625 209.742188 254.726562 L 148.957031 209.488281 L 216.058594 148.832031 C 216.058594 148.832031 220.609375 145.167969 219.34375 144.027344 C 217.953125 142.640625 213.027344 145.671875 210.371094 147.441406 C 207.84375 149.210938 128.234375 199.503906 128.234375 199.503906 L 88.046875 186.867188 C 83.5 185.476562 83.5 179.285156 90.070312 176.507812 L 238.425781 119.386719 C 244.746094 116.226562 249.925781 123.558594 248.535156 129.621094 Z M 248.535156 129.621094 " fill-opacity="1" fill-rule="nonzero"/><g clip-path="url(#7673548c12)"><path fill="#ffffff" d="M 187.5 337.5 C 104.855469 337.5 37.5 270.273438 37.5 187.5 C 37.5 104.855469 104.855469 37.5 187.5 37.5 C 270.273438 37.5 337.5 104.855469 337.5 187.5 C 337.5 270.273438 270.273438 337.5 187.5 337.5 Z M 187.5 45.714844 C 109.277344 45.714844 45.714844 109.277344 45.714844 187.5 C 45.714844 265.722656 109.277344 329.285156 187.5 329.285156 C 265.722656 329.285156 329.285156 265.722656 329.285156 187.5 C 329.285156 109.277344 265.722656 45.714844 187.5 45.714844 Z M 187.5 45.714844 " fill-opacity="1" fill-rule="nonzero"/></g></svg>