<svg xmlns="http://www.w3.org/2000/svg" xmlns:xlink="http://www.w3.org/1999/xlink" width="500" zoomAndPan="magnify" viewBox="0 0 375 374.999991" height="500" preserveAspectRatio="xMidYMid meet" version="1.0"><defs><clipPath id="23c87df48a"><path d="M 28.246094 28.246094 L 346.996094 28.246094 L 346.996094 346.996094 L 28.246094 346.996094 Z M 28.246094 28.246094 " clip-rule="nonzero"/></clipPath></defs><g clip-path="url(#23c87df48a)"><path fill="#ffffff" d="M 187.300781 28.246094 C 275.3125 28.246094 346.75 99.289062 346.75 187.300781 C 346.75 275.3125 275.3125 346.75 187.300781 346.75 C 99.289062 346.75 28.246094 275.3125 28.246094 187.300781 C 28.246094 99.289062 99.289062 28.246094 187.300781 28.246094 Z M 187.300781 144.28125 L 227.164062 87.050781 L 287.546875 87.050781 L 217.691406 187.300781 L 287.546875 287.546875 L 227.164062 287.546875 L 187.300781 230.714844 L 147.4375 287.546875 L 87.050781 287.546875 L 157.304688 187.300781 L 87.050781 87.050781 L 147.4375 87.050781 Z M 187.300781 144.28125 " fill-opacity="1" fill-rule="evenodd"/></g></svg>